<svg xmlns="http://www.w3.org/2000/svg" width="131" height="42"><style><![CDATA[.B{fill-rule:nonzero}]]></style><g fill-rule="evenodd"><path fill="#151619" stroke="#fff" stroke-opacity=".154" d="M15.383.5c-4.8 0-6.868.4-9.01 1.544-1.868 1-3.332 2.463-4.33 4.33C.9 8.515.5 10.582.5 15.383v11.233c0 4.8.4 6.868 1.544 9.01 1 1.868 2.463 3.332 4.33 4.33 2.14 1.145 4.207 1.544 9.01 1.544h100.233c4.8 0 6.868-.4 9.01-1.544 1.868-1 3.332-2.463 4.33-4.33 1.145-2.14 1.544-4.207 1.544-9.01V15.383c0-4.8-.4-6.868-1.544-9.01-1-1.868-2.463-3.332-4.33-4.33C122.485.9 120.418.5 115.617.5H15.383z"/><g fill="#fff"><path d="M26.622 21.34c0-1.87.998-3.628 2.662-4.618-.998-1.43-2.662-2.3-4.437-2.42-1.886-.22-3.66 1.1-4.66 1.1s-2.44-1.1-3.993-1.1c-2.108.1-3.993 1.2-4.992 2.97-2.108 3.628-.555 9.126 1.553 12.094.998 1.43 2.218 3.08 3.77 3.08 1.553-.1 2.108-1 3.993-1s2.33 1 3.993 1 2.662-1.43 3.66-2.97c.776-1 1.33-2.2 1.664-3.408-1.997-.66-3.217-2.64-3.217-4.728zm-3.1-8.905c.887-1.1 1.33-2.42 1.22-3.848a5.16 5.16 0 0 0-3.55 1.869c-.887 1-1.33 2.3-1.22 3.738 1.442 0 2.662-.66 3.55-1.76z"/><path d="M46.043 28.795H40.83l-1.22 3.738H37.4L42.383 18.9H44.6l4.992 13.634h-2.218l-1.33-3.738zm-4.66-1.65H45.6L43.492 21.1h-.1l-1.997 6.047zm18.96.457c0 3.08-1.664 5.058-4.215 5.058-1.33.1-2.55-.66-3.106-1.76v4.948h-2.108V22.654h1.997v1.65c.666-1.1 1.886-1.76 3.217-1.76 2.44-.1 4.215 1.98 4.215 5.058zm-2.218 0c0-1.98-.998-3.298-2.662-3.298-1.553 0-2.662 1.32-2.662 3.298s1.1 3.298 2.662 3.298c1.664 0 2.662-1.32 2.662-3.298zm13.198 0c0 3.08-1.664 5.058-4.215 5.058-1.33.1-2.55-.66-3.106-1.76v4.948h-2.108V22.654h1.997v1.65c.666-1.1 1.886-1.76 3.217-1.76 2.55-.1 4.215 1.98 4.215 5.058zm-2.108 0c0-1.98-.998-3.298-2.662-3.298-1.553 0-2.662 1.32-2.662 3.298S65 30.9 66.554 30.9c1.664 0 2.662-1.32 2.662-3.298z" class="B"/><path d="M78.648 28.695c.1 1.32 1.442 2.2 3.328 2.2 1.775 0 2.995-.88 2.995-2.1 0-1.1-.776-1.65-2.55-2.1l-1.775-.44c-2.55-.66-3.66-1.76-3.66-3.628 0-2.3 2.108-3.958 4.992-3.958s4.88 1.65 4.992 3.958h-2.1c-.1-1.32-1.22-2.2-2.884-2.2s-2.773.88-2.773 2.1c0 1 .776 1.54 2.55 1.98l1.553.33c2.773.66 3.993 1.76 3.993 3.738 0 2.53-2.108 4.178-5.324 4.178-3.106 0-5.102-1.54-5.213-4.068h1.886zM91.5 20.23v2.3h1.886v1.65H91.5v5.497c0 .88.333 1.2 1.22 1.2h.666v1.65c-.333.1-.776.1-1.1.1-1.997 0-2.773-.77-2.773-2.64V24.3H88.07v-1.65h1.442v-2.3H91.5v-.1z"/><path d="M94.62 27.598c0-3.08 1.886-5.058 4.77-5.058s4.77 1.98 4.77 5.058c0 3.188-1.886 5.058-4.77 5.058-2.995 0-4.77-1.98-4.77-5.058zm7.432 0c0-2.2-.998-3.408-2.662-3.408s-2.662 1.21-2.662 3.408.998 3.408 2.662 3.408 2.662-1.32 2.662-3.408z" class="B"/><path d="M105.813 22.55h1.997v1.76c.222-1.1 1.33-1.87 2.44-1.76.222 0 .444 0 .666.1v1.87c-.333-.1-.666-.1-.887-.1-1.11 0-2.108.88-2.108 1.98v6.267h-2.108V22.55z"/><path d="M120.47 29.57c-.222 1.76-2.108 3.08-4.326 3.08-2.884 0-4.77-1.98-4.77-5.058s1.775-5.168 4.66-5.168c2.773 0 4.548 1.87 4.548 4.948v.66h-7.1v.1c-.11 1.43.887 2.64 2.33 2.86h.333c.998.1 1.997-.44 2.33-1.43h1.997zm-6.988-2.97h4.992c.11-1.32-.998-2.42-2.33-2.53h-.222c-1.33 0-2.44 1.1-2.44 2.53z" class="B"/><path d="M39.817 11.433h.887c.555.1 1.11-.33 1.22-1v-.1c0-.66-.444-1-1.22-1-.666-.1-1.22.33-1.33 1h-.998a2.18 2.18 0 0 1 2.218-1.979h.11c1.33 0 2.218.77 2.218 1.76 0 .77-.444 1.32-1.22 1.54v.1c.887 0 1.553.77 1.442 1.54-.11 1.21-1.22 2.09-2.44 1.98-1.22.1-2.33-.66-2.44-1.87v-.1h.998c.11.66.666 1 1.553 1s1.442-.44 1.442-1.1-.555-1.1-1.442-1.1h-.887v-.66h-.11z"/><path d="M44.36 13.732c0-.88.666-1.43 1.886-1.43l1.33-.1v-.44c0-.55-.333-.77-.998-.77-.555 0-.887.22-.998.55h-.998c.11-.88.887-1.43 1.997-1.43 1.22 0 1.997.66 1.997 1.65v3.408h-.998v-.66h-.11c-.333.55-.887.77-1.553.77-.776.1-1.553-.55-1.664-1.32.11-.1.11-.1.11-.22zm3.217-.44v-.44l-1.22.1c-.666 0-.998.33-.998.66 0 .44.444.66.887.66.666.22 1.33-.22 1.33-1 0 .1 0 .1 0 0z" class="B"/><path d="M51.255 11v4.178h-.998V10.22h3.328V11z"/><path d="M59.456 12.65c0 1.54-.776 2.53-2.108 2.53-.666 0-1.22-.33-1.553-.88h-.11v2.42h-.998V10.12h.998v.77h.11c.333-.55.887-.88 1.553-.88 1.33.1 2.108 1.1 2.108 2.64zm-.998 0c0-1.1-.555-1.65-1.33-1.65s-1.33.66-1.33 1.65.555 1.65 1.33 1.65c.887.1 1.33-.55 1.33-1.65z" class="B"/><path d="M60.785 16.927v-.88h.333c.444 0 .776-.22.887-.66l.1-.22-1.775-4.948h1.1l1.22 3.958h.1L64 10.22h1l-1.886 5.168c-.444 1.2-.887 1.54-1.886 1.54h-.444zm5-3.183h.998c.1.44.555.66 1.1.66.666 0 1.1-.33 1.1-.77s-.333-.66-1.1-.66h-.776v-.77h.776c.555 0 .887-.22.887-.66 0-.33-.333-.66-.887-.66s-.998.22-.998.66h-.998c.1-.88.998-1.54 1.997-1.43 1.22 0 1.886.55 1.886 1.32a1.06 1.06 0 0 1-.776.99v.1c.555.1.998.55.998 1.1 0 1-.776 1.54-1.997 1.54-1.22.1-2.108-.44-2.218-1.43zm5.536 1.424V10.22h.998v3.408l2.33-3.408h.998v4.948h-.998v-3.4h-.1l-2.33 3.4zM80.985 11h-1.553v4.178h-.998V11H76.88v-.77h4.104z"/><path d="M86.293 13.848c-.222.88-1.22 1.54-2.218 1.43-1.22 0-2.33-1-2.33-2.2v-.33c-.222-1.2.666-2.42 1.997-2.53h.333c1.442 0 2.218 1 2.218 2.53v.33h-3.55c-.1.77.444 1.32 1.22 1.43h.1c.444.1.998-.22 1.22-.55l.998-.1zm-3.44-1.65h2.55c0-.66-.444-1.2-1.1-1.32h-.1c-.776.1-1.33.66-1.33 1.32zm7.663-1.978h2.218c.998 0 1.553.44 1.553 1.2a1.07 1.07 0 0 1-.887 1.099v.1c.555 0 1.1.55 1.1 1.1 0 .88-.666 1.43-1.775 1.43h-2.33v-4.94h.1zm.998.77v1.2h.998c.555 0 .887-.22.887-.66s-.222-.66-.776-.66l-1.1.1zm0 1.98v1.43h1.22c.555 0 .887-.22.887-.77s-.333-.77-.998-.77l-1.1.1z" class="B"/></g></g></svg>