<svg height="512pt" viewBox="0 -76 512 512" width="512pt" xmlns="http://www.w3.org/2000/svg"><path d="m456.832031 160.667969h-401.664062c-30.421875 0-55.167969 24.746093-55.167969 55.167969v88.367187c0 30.417969 24.746094 55.164063 55.167969 55.164063h401.664062c30.421875 0 55.167969-24.746094 55.167969-55.164063v-88.367187c0-30.421876-24.746094-55.167969-55.167969-55.167969zm0 0" fill="#e7f0ef"/><path d="m456.832031 160.667969h-200.832031v198.699219h200.832031c30.421875 0 55.167969-24.746094 55.167969-55.164063v-88.367187c0-30.421876-24.746094-55.167969-55.167969-55.167969zm0 0" fill="#c5e1e6"/><path d="m456.832031 0h-401.664062c-30.421875 0-55.167969 24.75-55.167969 55.167969v80.332031c0 30.421875 24.746094 55.167969 55.167969 55.167969h401.664062c30.421875 0 55.167969-24.746094 55.167969-55.167969v-80.332031c0-30.417969-24.746094-55.167969-55.167969-55.167969zm0 0" fill="#ff2c49"/><path d="m456.832031 0h-200.832031v190.667969h200.832031c30.421875 0 55.167969-24.746094 55.167969-55.167969v-80.332031c0-30.417969-24.746094-55.167969-55.167969-55.167969zm0 0" fill="#f40238"/><path d="m108.269531 0-57.148437 190.503906c1.335937.097656 2.683594.164063 4.046875.164063h27.226562l57.199219-190.667969zm0 0" fill="#e7f0ef"/><path d="m456.832031 0h-27.226562l-57.199219 190.667969h31.320312l57.152344-190.503907c-1.339844-.0976558-2.683594-.164062-4.046875-.164062zm0 0" fill="#c5e1e6"/><path d="m160.667969 0h190.664062v359.367188h-190.664062zm0 0" fill="#3d5959"/><path d="m256 0h95.332031v359.367188h-95.332031zm0 0" fill="#293939"/></svg>