<svg viewBox="0 0 512 512" xmlns="http://www.w3.org/2000/svg" xmlns:xlink="http://www.w3.org/1999/xlink"><linearGradient id="a" gradientTransform="matrix(1 0 0 -1 0 -15158)" gradientUnits="userSpaceOnUse" x1="0" x2="512" y1="-15414" y2="-15414"><stop offset="0" stop-color="#00f1ff"/><stop offset=".231" stop-color="#00d8ff"/><stop offset=".5138" stop-color="#00c0ff"/><stop offset=".7773" stop-color="#00b2ff"/><stop offset="1" stop-color="#00adff"/></linearGradient><path d="m512 256c0 141.386719-114.613281 256-256 256s-256-114.613281-256-256 114.613281-256 256-256 256 114.613281 256 256zm0 0" fill="url(#a)"/><g fill="#fff"><path d="m435.046875 164.707031c-5.925781-12.890625-21.039063-28.765625-59.40625-31.179687-8.273437-.519532-15.394531 5.761718-15.914063 14.03125-.519531 8.269531 5.761719 15.390625 14.03125 15.914062 18.128907 1.136719 30.53125 6.152344 34.027344 13.761719 1.972656 4.292969 3.015625 7.28125 2.878906 10.757813-.398437 10.09375-9.554687 26.132812-27.242187 47.777343-23.144531-21.292969-51.804687-41.320312-83.992187-58.597656-32.078126-17.222656-63.761719-28.164063-88.351563-35.820313 1.292969-3.511718 2.648437-6.929687 4.070313-10.234374 12.160156-28.25 27.847656-45.117188 41.964843-45.117188 11.757813 0 21.996094 11.367188 28.511719 20.898438 4.671875 6.839843 14.007812 8.597656 20.847656 3.921874 6.839844-4.671874 8.59375-14.007812 3.921875-20.847656-19.191406-28.078125-39.566406-33.972656-53.28125-33.972656-27.273437 0-51.960937 22.464844-69.519531 63.253906-2.089844 4.859375-4.054688 9.921875-5.890625 15.160156-29.742187-4.609374-53.1875-1.46875-54.4375-1.296874-.097656.015624-.195313.03125-.292969.042968-27.945312 4.460938-40.480468 17.824219-46.074218 28.246094-3.71875 6.925781-5.652344 14.421875-5.753907 22.28125-.140625 11.128906 3.28125 23.535156 10.179688 36.871094 3.804687 7.359375 12.855469 10.242187 20.210937 6.433594 7.359375-3.804688 10.242188-12.851563 6.4375-20.210938-4.546875-8.792969-6.910156-16.644531-6.832031-22.707031.039063-3.035157.753906-5.808594 2.191406-8.480469 4.296875-8.003906 15.484375-11.367188 24.191407-12.777344 1.570312-.203125 19.125-2.308594 41.703124.679688-6.714843 28.195312-10.289062 59.800781-10.289062 92.503906 0 33.761719 5.394531 65.140625 10.976562 90.535156-36.714843 5.242188-61.660156-.550781-67.917968-12.664062-1.074219-2.082032-1.609375-4.769532-1.636719-8.226563-.039063-4.539062.878906-9.289062 2.726563-14.125 2.953124-7.742187-.929688-16.410156-8.667969-19.363281s-16.410157.921875-19.363281 8.664062c-3.183594 8.34375-4.765626 16.78125-4.695313 25.070313.066406 8.273437 1.695313 15.386719 4.980469 21.746094 10.410156 20.15625 34.660156 30.851562 69.15625 30.851562 5.6875 0 11.660156-.292969 17.886718-.878906 4.921876-.464844 9.960938-1.105469 15.09375-1.914063 9.300782 28.253907 21.964844 45.914063 23.703126 48.261719 18.835937 26.476563 38.632812 32.042969 51.933593 32.042969 13.714844 0 34.089844-5.894531 53.28125-33.972656 4.671875-6.839844 2.917969-16.171875-3.921875-20.847656-6.839844-4.671876-16.171875-2.917969-20.847656 3.917968-6.515625 9.535156-16.753906 20.902344-28.511719 20.902344-11.328125 0-21.246093-10.628906-27.566406-19.546875-.074219-.101563-.175781-.242187-.25-.34375-.125-.167969-10.269531-13.90625-18.261719-36.6875 27.996094-7.347656 57.777344-18.941406 87.0625-34.066406 30.785156-15.898438 59.269532-34.867188 82.378906-54.851563.878907-.761718 1.636719-1.609375 2.292969-2.511718 16.476563 19.089843 25.699219 36.992187 25.53125 49.933593-.054687 4.15625-.484375 6.769531-1.402343 8.476563-4.328126 8.0625-15.644532 11.417968-24.375 12.808594-8.179688 1.308593-13.753907 9-12.449219 17.179687 1.179687 7.378906 7.554687 12.636719 14.796875 12.636719.785156 0 1.582031-.0625 2.382812-.191406 27.945313-4.460938 40.480469-17.820313 46.074219-28.242188 4.253906-7.921875 4.890625-16.070312 4.972656-22.285156.265625-20.992188-11.375-45.410156-33.75-70.988282 24.4375-29.386718 35.378907-50.222656 36.089844-68.144531.390625-9.941406-2.457031-17.636719-5.59375-24.46875zm-206.308594 14.132813c-3.480469 1.691406-6.953125 3.414062-10.398437 5.191406-7.082032 3.660156-14.046875 7.480469-20.855469 11.441406 1.367187-8.753906 3.03125-17.238281 4.984375-25.382812 8.066406 2.515625 16.902344 5.390625 26.269531 8.75zm-30.617187 135.140625c6.472656 3.886719 13.09375 7.648437 19.8125 11.253906 4.320312 2.320313 8.683594 4.558594 13.0625 6.738281-9.625 3.414063-18.875 6.25-27.683594 8.550782-1.820312-8.246094-3.617188-17.132813-5.191406-26.542969zm86.210937-5.28125c-6.007812 3.101562-11.925781 5.996093-17.753906 8.699219-1.460937-1.871094-3.382813-3.425782-5.699219-4.464844-9.601562-4.289063-19.277344-9.042969-28.757812-14.128906-12.371094-6.644532-24.371094-13.832032-35.667969-21.363282-.914063-.605468-1.867187-1.09375-2.84375-1.480468-.429687-6.546876-.671875-13.214844-.671875-19.960938 0-7.714844.214844-15.351562.628906-22.875 12.164063-7.960938 25.125-15.511719 38.535156-22.4375 10.425782-5.382812 21.058594-10.355469 31.597657-14.78125 1.042969-.4375 2.003906-.984375 2.886719-1.613281 6.183593 2.871093 12.417968 5.960937 18.65625 9.308593 8.398437 4.507813 16.589843 9.265626 24.507812 14.207032-.082031.902344-.097656 1.824218-.011719 2.757812 1.082031 11.898438 2.082031 24.714844 2.082031 37.835938 0 12.457031-.902343 24.625-1.917968 36-8.261719 4.988281-16.808594 9.773437-25.570313 14.296875zm57.132813-35.402344c.21875-4.871094.359375-9.835937.359375-14.890625 0-6.421875-.222657-12.695312-.558594-18.808594 7.378906 5.660156 14.328125 11.445313 20.765625 17.292969-.402344.285156-.796875.589844-1.179688.921875-6.070312 5.246094-12.5625 10.421875-19.386718 15.484375zm0 0"/><path d="m336.285156 147.039062c0 8.65625-7.015625 15.675782-15.675781 15.675782s-15.679687-7.019532-15.679687-15.675782c0-8.660156 7.019531-15.679687 15.679687-15.679687s15.675781 7.019531 15.675781 15.679687zm0 0"/><path d="m139.527344 261.488281c0 8.65625-7.019532 15.675781-15.675782 15.675781-8.660156 0-15.679687-7.019531-15.679687-15.675781 0-8.660156 7.019531-15.679687 15.679687-15.679687 8.65625 0 15.675782 7.019531 15.675782 15.679687zm0 0"/><path d="m339.421875 363.394531c0 8.65625-7.019531 15.675781-15.675781 15.675781-8.660156 0-15.679688-7.019531-15.679688-15.675781 0-8.660156 7.019532-15.679687 15.679688-15.679687 8.65625 0 15.675781 7.019531 15.675781 15.679687zm0 0"/></g></svg>