<svg xmlns="http://www.w3.org/2000/svg" width="51" height="51" fill="#e0112f" fill-rule="evenodd"><path d="M25.5 0C11.417 0 0 11.417 0 25.5S11.417 51 25.5 51 51 39.583 51 25.5C50.984 11.423 39.577.016 25.5 0zm0 49.3c-13.144 0-23.8-10.656-23.8-23.8S12.356 1.7 25.5 1.7s23.8 10.656 23.8 23.8c-.015 13.138-10.662 23.785-23.8 23.8zm0-45.9c-12.205 0-22.1 9.895-22.1 22.1s9.895 22.1 22.1 22.1 22.1-9.895 22.1-22.1A22.13 22.13 0 0 0 25.5 3.4zm0 42.5c-11.267 0-20.4-9.133-20.4-20.4S14.233 5.1 25.5 5.1s20.4 9.133 20.4 20.4a20.43 20.43 0 0 1-20.4 20.4z" fill-rule="nonzero"/><path d="M29.106 11.514c-7.728-1.99-15.607 2.66-17.598 10.39a14.45 14.45 0 0 0 1.475 10.822.85.85 0 0 0 1.471-.85c-3.517-6.1-1.422-13.897 4.68-17.414s13.897-1.422 17.414 4.68a12.75 12.75 0 0 1 1.3 9.549.85.85 0 0 0 1.647.425v-.003c1.99-7.728-2.66-15.607-10.39-17.598z"/><path fill-rule="nonzero" d="M37.938 31.642l-9.35-7.65c-.025-.016-.052-.03-.08-.043a3.39 3.39 0 1 0-6.036 3.09 3.39 3.39 0 0 0 2.823 1.84L37.11 33.1a.84.84 0 0 0 .289.05.85.85 0 0 0 .538-1.508zM25.5 27.2a1.7 1.7 0 1 1 0-3.4 1.7 1.7 0 1 1 0 3.4zm2.316.775a3.38 3.38 0 0 0 .964-1.629l4.285 3.5-5.25-1.872zM28.9 34h-6.8a4.25 4.25 0 1 0 0 8.5h6.8a4.25 4.25 0 1 0 0-8.5zm0 6.8h-6.8a2.55 2.55 0 0 1 0-5.1h6.8a2.55 2.55 0 0 1 0 5.1z"/></svg>