<svg xmlns="http://www.w3.org/2000/svg" width="128" height="42"><defs><linearGradient id="A" x1="61.031%" x2="19.969%" y1="4.557%" y2="26.491%"><stop offset="0%" stop-color="#00a0ff"/><stop offset=".657%" stop-color="#00a1ff"/><stop offset="26.01%" stop-color="#00beff"/><stop offset="51.22%" stop-color="#00d2ff"/><stop offset="76.04%" stop-color="#00dfff"/><stop offset="100%" stop-color="#00e3ff"/></linearGradient><linearGradient id="B" x1="106.894%" x2="-129.535%" y1="50.015%" y2="50.015%"><stop offset="0%" stop-color="#ffe000"/><stop offset="40.87%" stop-color="#ffbd00"/><stop offset="77.54%" stop-color="orange"/><stop offset="100%" stop-color="#ff9c00"/></linearGradient><linearGradient id="C" x1="86.073%" x2="-7.657%" y1="30.843%" y2="155.863%"><stop offset="0%" stop-color="#ff3a44"/><stop offset="100%" stop-color="#c31162"/></linearGradient><linearGradient id="D" x1="-18.415%" x2="22.874%" y1="-11.44%" y2="43.908%"><stop offset="0%" stop-color="#32a071"/><stop offset="6.85%" stop-color="#2da771"/><stop offset="47.62%" stop-color="#15cf74"/><stop offset="80.09%" stop-color="#06e775"/><stop offset="100%" stop-color="#00f076"/></linearGradient></defs><g fill-rule="evenodd"><path fill="#151619" stroke="#fff" stroke-opacity=".154" d="M15.383.5c-4.8 0-6.868.4-9.01 1.544-1.868 1-3.332 2.463-4.33 4.33C.9 8.515.5 10.582.5 15.383v11.233c0 4.8.4 6.868 1.544 9.01 1 1.868 2.463 3.332 4.33 4.33 2.14 1.145 4.207 1.544 9.01 1.544h97.233c4.8 0 6.868-.4 9.01-1.544 1.868-1 3.332-2.463 4.33-4.33 1.145-2.14 1.544-4.207 1.544-9.01V15.383c0-4.8-.4-6.868-1.544-9.01-1-1.868-2.463-3.332-4.33-4.33C119.485.9 117.418.5 112.617.5H15.383z"/><path fill="#fff" d="M64.358 22.28c-2.24 0-4.08 1.683-4.08 4.088 0 2.324 1.84 4.087 4.08 4.087a4.05 4.05 0 0 0 4.08-4.087c0-2.405-1.84-4.088-4.08-4.088zm0 6.572c-1.2 0-2.32-1.042-2.32-2.484s1.04-2.485 2.32-2.485c1.2 0 2.32 1.042 2.32 2.485-.08 1.442-1.12 2.484-2.32 2.484zm-8.96-6.572c-2.24 0-4.08 1.683-4.08 4.088 0 2.324 1.84 4.087 4.08 4.087a4.05 4.05 0 0 0 4.08-4.087c0-2.405-1.84-4.088-4.08-4.088zm0 6.572c-1.2 0-2.32-1.042-2.32-2.484s1.04-2.485 2.32-2.485c1.2 0 2.32 1.042 2.32 2.485s-1.12 2.484-2.32 2.484zm-10.64-5.29v1.763h4.16c-.16.962-.48 1.683-.96 2.164-.64.64-1.52 1.282-3.2 1.282-2.56 0-4.56-2.084-4.56-4.648s2-4.648 4.56-4.648c1.36 0 2.4.56 3.12 1.202l1.2-1.202c-1.04-.962-2.4-1.763-4.32-1.763-3.52 0-6.4 2.885-6.4 6.332 0 3.526 2.96 6.33 6.4 6.33 1.92 0 3.28-.64 4.4-1.763s1.52-2.725 1.52-4.087c0-.4 0-.802-.08-1.122h-5.84v.16zm43.44 1.282c-.32-.882-1.36-2.565-3.52-2.565-2.08 0-3.84 1.683-3.84 4.088 0 2.324 1.76 4.087 4.08 4.087 1.84 0 2.96-1.122 3.44-1.843l-1.36-.962c-.48.64-1.12 1.122-2 1.122s-1.6-.4-2-1.202l5.44-2.244-.24-.48zm-5.52 1.363c-.08-1.603 1.2-2.405 2.16-2.405.72 0 1.28.32 1.52.882l-3.68 1.523zm-4.48 4.007h1.76V18.192h-1.76v12.022zm-2.88-7.053c-.48-.48-1.2-.882-2.24-.882-2.08 0-3.92 1.763-3.92 4.088s1.84 4.087 3.92 4.087c.96 0 1.76-.4 2.16-.962h.08v.56c0 1.523-.8 2.404-2.16 2.404-1.12 0-1.76-.8-2.08-1.443l-1.6.64c.48 1.122 1.6 2.404 3.6 2.404 2.08 0 3.92-1.202 3.92-4.248V22.52h-1.68v.64zm-2.08 5.7c-1.2 0-2.24-1.042-2.24-2.484s1.04-2.485 2.24-2.485 2.16 1.042 2.16 2.485-.96 2.484-2.16 2.484zm23.36-10.66h-4.32v12.022h1.76v-4.568h2.48c2 0 3.92-1.442 3.92-3.767s-1.84-3.687-3.84-3.687zm.08 5.77h-2.56v-4.087h2.56c1.36 0 2.08 1.122 2.08 2.084 0 .882-.72 2.004-2.08 2.004zm11.04-1.683c-1.28 0-2.64.56-3.2 1.843l1.6.64c.32-.64.96-.882 1.6-.882.96 0 1.84.56 1.92 1.523v.16c-.32-.16-1.04-.48-1.84-.48-1.68 0-3.44.962-3.44 2.725 0 1.603 1.44 2.645 2.96 2.645 1.2 0 1.84-.56 2.32-1.202h.08v.962h1.76v-4.568c-.08-2.164-1.68-3.366-3.76-3.366zm-.16 6.572c-.56 0-1.44-.32-1.44-1.042 0-.962 1.04-1.282 1.92-1.282.8 0 1.12.16 1.6.4-.08 1.122-1.04 1.923-2.08 1.923zm10.16-6.33l-2.08 5.21h-.08l-2.16-5.21h-1.92l3.2 7.293-1.84 4.007h1.84l4.96-11.3h-1.92zm-16.16 7.694h1.76V18.192h-1.76v12.022z"/><path fill="url(#A)" d="M8.998 8.655c-.32.24-.48.72-.48 1.362v21.238c0 .56.16 1.042.48 1.362l.08.08 11.92-11.86v-.4l-12-11.78z"/><path fill="url(#B)" d="M24.918 24.684l-4-3.927v-.32l4-3.927.08.08 4.72 2.645c1.36.8 1.36 2.004 0 2.805l-4.72 2.645h-.08z"/><path fill="url(#C)" d="M24.998 24.684l-4.08-4.087-11.92 11.94c.48.48 1.2.56 2 .08l14-7.934z"/><path fill="url(#D)" d="M24.998 16.51l-14.08-7.934c-.8-.48-1.52-.4-2 .08l12 11.942 4.08-4.087z"/><g fill="#fff"><path d="M10.918 8.735l18.72 10.66c.64.32.96.8 1.04 1.282 0-.48-.32-1.042-1.04-1.362l-18.72-10.74c-1.36-.8-2.4-.16-2.4 1.443v.16c0-1.603 1.12-2.244 2.4-1.443z" opacity=".25"/><path d="M39.396 15.066h-.72v-1.923h.56c.48-.4.72-1.202.72-2.244V8.094h3.84v5.05h.64v1.923h-.72v-1.202h-4.4v1.202h.08zm1.28-4.087c0 .882-.16 1.683-.56 2.244h2.88V8.815h-2.4v2.164h.08zm9.52 2.164c-.56.56-1.28.882-2.08.882-.88 0-1.52-.32-2.08-.882a2.96 2.96 0 0 1-.88-2.164c0-.882.32-1.523.88-2.164.56-.56 1.28-.882 2.08-.882s1.52.32 2.08.882a2.96 2.96 0 0 1 .88 2.164 2.96 2.96 0 0 1-.88 2.164zm-3.68-.48c.4.4.96.64 1.6.64s1.12-.24 1.6-.64c.4-.4.64-.962.64-1.683 0-.64-.24-1.202-.64-1.683-.4-.4-.96-.64-1.6-.64s-1.12.24-1.6.64c-.4.4-.64.962-.64 1.683s.24 1.202.64 1.683zm8.24 1.362c-.88 0-1.52-.32-2.16-.882a2.96 2.96 0 0 1-.88-2.164 2.96 2.96 0 0 1 .88-2.164 2.95 2.95 0 0 1 2.16-.882c.88 0 1.6.32 2.08.962l-.48.48c-.4-.48-.96-.72-1.6-.72s-1.12.24-1.6.64c-.4.48-.64 1.042-.64 1.683 0 .72.24 1.202.64 1.683.4.4.96.64 1.6.64.72 0 1.28-.24 1.76-.8l.48.48c-.24.32-.56.56-.96.72-.4.24-.8.32-1.28.32zm5.28-.16h-.72v-5.05h-1.6v-.72h3.92v.72h-1.6zm6.718-5.77l-2.16 4.9c-.32.72-.72 1.042-1.36 1.042-.16 0-.4-.08-.56-.16l.16-.72a.72.72 0 0 0 .4.08c.16 0 .32 0 .4-.08s.16-.16.24-.4l.24-.48-2-4.168h.88l1.44 3.286 1.36-3.286h.96zm.8 5.77v-5.77h4.16v5.77h-.72v-5.05h-2.72v5.05zm5.52 0v-5.77h.72v2.484h2.88V8.094h.72v5.77h-.72V11.3h-2.88v2.565zm10.4-.72c-.56.56-1.28.882-2.08.882-.88 0-1.52-.32-2.08-.882a2.96 2.96 0 0 1-.88-2.164c0-.882.32-1.523.88-2.164.56-.56 1.28-.882 2.08-.882s1.52.32 2.08.882a2.96 2.96 0 0 1 .88 2.164c-.08.882-.32 1.603-.88 2.164zm-3.68-.48c.4.4.96.64 1.6.64s1.12-.24 1.6-.64c.4-.4.64-.962.64-1.683 0-.64-.24-1.202-.64-1.683-.4-.4-.96-.64-1.6-.64s-1.12.24-1.6.64c-.4.4-.64.962-.64 1.683s.16 1.202.64 1.683zm7.52 1.202v-5.77h2.08c.48 0 .88.16 1.2.48s.48.64.48 1.122a1.29 1.29 0 0 1-.24.72c-.16.24-.32.4-.56.48.32.08.48.24.72.48a1.35 1.35 0 0 1 .24.8c0 .48-.16.882-.48 1.202s-.72.48-1.2.48h-2.24zm.72-3.286h1.36c.24 0 .48-.08.64-.24s.24-.4.24-.64-.08-.4-.24-.64c-.16-.16-.4-.24-.64-.24h-1.36v1.763zm0 2.565h1.52c.32 0 .48-.08.72-.32.16-.16.24-.4.24-.64s-.08-.48-.24-.64-.4-.32-.72-.32h-1.44v1.923h-.08z" stroke="#fff" stroke-width=".2"/></g></g></svg>