<svg xmlns="http://www.w3.org/2000/svg" width="50" height="50" fill="#e0112f" fill-rule="evenodd"><path fill-rule="nonzero" d="M47.948 16.7h-.03l.017-.45v-1.63c-.004-2.214-.93-4.326-2.552-5.82l4.545-4.574L46.28.555 42.975 3.88V.067h-4.96v4.645L33.884.555l-3.648 3.67L34.8 8.807c-.877.804-1.563 1.796-2.007 2.902l-.203.582v.01l-.134.44c-.66-.586-1.488-.943-2.364-1.018l.255-.257a4.38 4.38 0 0 0 .005-6.166c-1.486-1.498-3.826-1.705-5.55-.493v-.582c0-2.296-1.85-4.158-4.132-4.158S16.53 1.93 16.53 4.225v.582c-.496-.346-1.06-.583-1.653-.694v-.72c0-1.837-1.48-3.326-3.306-3.326s-3.306 1.49-3.306 3.326v.5c-1.554-1.377-3.923-1.225-5.29.338a3.79 3.79 0 0 0 .013 5.001c-1.81.17-3.14 1.78-2.97 3.6a3.32 3.32 0 0 0 .952 2.037c-.623.745-.965 1.687-.967 2.66.003 2.983 1.453 5.777 3.884 7.484H0v24.948h49.587V25.015h-3.14l1.502-8.316zM46.28 2.906l1.31 1.32L44.038 7.8c-.036-.02-.074-.035-.1-.055-.176-.1-.36-.185-.54-.27l-.286-.143-.124-.125-.002-.975 3.306-3.326zM39.67 1.73h1.653v5H39.67v-5zm-7.096 2.495l1.31-1.32 4.086 4.11-.74.25a7.85 7.85 0 0 0-1.003.488c-.032.018-.068.03-.1.048l-3.555-3.578zm1.31 10.395a6.3 6.3 0 0 1 .125-1.247h8.14V11.7h-7.546c.456-.857 1.102-1.597 1.888-2.162a6.16 6.16 0 0 1 7.176 0c1.633 1.168 2.607 3.057 2.614 5.073v1.63c0 .15-.008.3-.024.45H42.15v1.663h3.818l-1.202 6.653h-5.92c0-.56-.062-1.118-.187-1.663h3.493V21.69h-4.083l-.35-.632-.136-.2-.27-.4-.182-.222-.278-.324-.213-.216-.295-.283-.238-.2-.316-.25-.26-.18-.34-.214-.274-.156-.364-.18-.285-.13-.12-.055-.192-1.064c-.045-.245-.067-.493-.068-.742v-1.63zm-.72 4.85c1.638.525 2.958 1.757 3.6 3.36a5.82 5.82 0 0 1 .426 2.184H25.62c.004-3.213 2.592-5.818 5.785-5.82l.353.017.07.005c.454.03.902.116 1.336.254zM14.05 5.686c.71-.002 1.393.283 1.895.8.512.515 1.342.515 1.854-.001.245-.247.383-.582.383-.93v-1.32c0-1.378 1.1-2.495 2.48-2.495s2.48 1.117 2.48 2.495v1.32c0 .728.588 1.32 1.312 1.318.347 0 .68-.14.926-.386a2.67 2.67 0 0 1 3.79.043 2.71 2.71 0 0 1 0 3.77l-.484.487c-.6.593-.6 1.556-.001 2.15.283.285.668.446 1.07.446 1.37 0 2.48 1.117 2.48 2.495-.004.617-.237 1.2-.654 1.663h-.173a7.4 7.4 0 0 0-.947.067l-.26.04a7.34 7.34 0 0 0-.725.157l-.196.05a7.34 7.34 0 0 0-.847.313l-.185.1c-.22.103-.432.217-.635.34l-.212.13a7.48 7.48 0 0 0-.726.526l-.014.012a7.5 7.5 0 0 0-.636.605l-.165.185-.453.564-.116.156c-.17.246-.323.502-.462.767l-.032.053-.032-.053c-.14-.265-.293-.52-.462-.767l-.116-.156-.453-.564-.165-.185a7.5 7.5 0 0 0-.636-.605l-.014-.012a7.48 7.48 0 0 0-.726-.526l-.212-.13-.635-.34-.185-.1a7.34 7.34 0 0 0-.847-.313l-.196-.05a7.31 7.31 0 0 0-.725-.157l-.26-.04a7.4 7.4 0 0 0-.95-.067l-.655.03-.208.026-.436.062-.243.05-.392.094-.248.072-.377.13-.236.09-.382.172-.207.1-.445.25-.12.07-.155.106-.36-.723-.147-.243-.324-.5-.198-.268-.344-.435-.23-.26-.38-.4-.248-.236-.43-.36-.248-.2-.53-.358-.202-.133-.752-.407.04-.045c.09-.102.186-.196.29-.282l.09-.074a2.43 2.43 0 0 1 .402-.249c.017-.008.035-.013.05-.02a2.43 2.43 0 0 1 .402-.139l.123-.028a2.46 2.46 0 0 1 .481-.049c.834 0 1.51-.68 1.51-1.52 0-.404-.16-.79-.443-1.076l-.484-.487c-.127-.127-.24-.266-.34-.416-.017-.027-.028-.057-.045-.083-.077-.125-.143-.256-.198-.392-.005-.012-.007-.024-.01-.036-.243-.63-.243-1.33 0-1.962.004-.012.006-.024.01-.035a2.69 2.69 0 0 1 .202-.388c.017-.027.026-.057.044-.083.496-.755 1.334-1.21 2.233-1.21zm.584 14.743l.016-.013a5.8 5.8 0 0 1 .716-.472l.12-.068c.243-.13.495-.24.754-.333l.14-.048c.263-.09.533-.158.806-.207l.116-.017c3.134-.51 6.085 1.635 6.59 4.79.05.316.075.635.073.956H14.05v-.022c.05-.067.083-.14.13-.21s.107-.16.154-.25a4.15 4.15 0 0 0 .188-.39l.107-.25c.05-.15.094-.3.127-.456l.055-.22c.042-.23.064-.464.065-.698a9.17 9.17 0 0 0-.242-2.091zm-11.328-9.55c.834 0 1.51-.68 1.51-1.52 0-.404-.16-.79-.443-1.076l-.07-.072a2.12 2.12 0 0 1 .047-2.982c.813-.793 2.104-.793 2.917 0 .607.6 1.6.61 2.196-.001a1.57 1.57 0 0 0 .454-1.103v-.73a1.66 1.66 0 0 1 1.653-1.663 1.66 1.66 0 0 1 1.653 1.663v.71h-.014c-.024.005-.047.014-.07.02a4.27 4.27 0 0 0-.661.201l-.212.093c-.17.077-.337.166-.496.265l-.19.12C9.616 6.145 9.106 8.835 10.44 10.8a4.32 4.32 0 0 0 .541.652l.255.257a4.12 4.12 0 0 0-.539.083c-.056.012-.1.03-.165.043l-.353.106-.182.072-.313.145-.172.092-.303.196-.14.098c-.13.1-.253.207-.37.32-.01.01-.02.017-.03.027a4.14 4.14 0 0 0-.354.406l-.09.13-.165.233h-.016c-.33-.085-.664-.15-1.002-.197l-.248-.032a8.8 8.8 0 0 0-1.01-.068H4.132a4.1 4.1 0 0 0-.565.043l-.172.03-.388.09-.18.056c-.134.046-.266.1-.394.158l-.13.058-.037.017a1.64 1.64 0 0 1-.61-1.285 1.66 1.66 0 0 1 1.653-1.663zM1.653 17.53c.004-1.376 1.112-2.49 2.48-2.495h1.653c.827.001 1.648.142 2.43.416h.01c1.96.685 3.546 2.16 4.38 4.07a7.47 7.47 0 0 1 .307.841v.004c.208.698.314 1.424.313 2.153-.002.6-.223 1.18-.62 1.63-.326.378-.758.647-1.24.772h-.004a2.42 2.42 0 0 1-.616.094H9.09c-4.106-.005-7.433-3.353-7.438-7.484zm46.28 30.77H1.653V31.668h46.28V48.3zm0-21.622v3.326H1.653V26.68h46.28z"/><path d="M38.843 16.7h1.653v1.663h-1.653zm-20.66-8.317c-1.826 0-3.306 1.5-3.306 3.326v.832h1.653v-.84a1.66 1.66 0 0 1 1.653-1.663 1.66 1.66 0 0 1 1.653 1.663v.832h1.653V11.7c0-1.837-1.48-3.326-3.306-3.326zm4.132 7.484h1.653a2.48 2.48 0 0 1 2.48-2.495V11.7c-2.28.003-4.13 1.863-4.132 4.158z"/></svg>