<svg xmlns="http://www.w3.org/2000/svg" width="47" height="50" fill="#e0112f" fill-rule="evenodd"><path d="M13.43 3.333h3.357V5H13.43zm-3.36 0h1.68V5h-1.68zm0 41.667h6.714v1.667H10.07z"/><path fill-rule="nonzero" d="M44.482 14.167H26.857V2.5A2.51 2.51 0 0 0 24.339 0H2.518A2.51 2.51 0 0 0 0 2.5v45A2.51 2.51 0 0 0 2.518 50h21.82a2.51 2.51 0 0 0 2.518-2.5V35.833h17.625a2.51 2.51 0 0 0 2.518-2.5V16.667a2.51 2.51 0 0 0-2.518-2.5zM1.68 2.5c0-.46.376-.833.84-.833h21.82c.463 0 .84.373.84.833v4.167H1.68V2.5zm23.5 45c0 .46-.376.833-.84.833H2.518c-.463 0-.84-.373-.84-.833v-4.167h23.5V47.5zm0-5.833H1.68V8.333h23.5v5.833h-5.875a2.51 2.51 0 0 0-2.518 2.5v16.667a2.51 2.51 0 0 0 2.518 2.5h5.875v5.833zm20.143-8.333c0 .46-.376.833-.84.833h-25.18c-.463 0-.84-.373-.84-.833V16.667c0-.46.376-.833.84-.833h25.18c.463 0 .84.373.84.833v16.667z"/><path d="M5.036 20.833h10.07V22.5H5.036zM8.393 27.5h6.714v1.667H8.393zm-1.68-3.333h8.393v1.667H6.714zm-3.357 0h1.68v1.667h-1.68z"/><path fill-rule="nonzero" d="M20.143 20.833v8.333h10.07v-8.333h-10.07zm8.393 6.667H21.82v-5h6.714v5z"/><path d="M23.5 24.167h3.357v1.667H23.5zm-3.357 6.666H23.5V32.5h-3.357zm5.037 0h8.393V32.5H25.18zM38.607 17.5v1.667h3.357v1.666h1.68V17.5zm3.357 5h1.68v1.667h-1.68z"/></svg>