<?xml version="1.0" encoding="iso-8859-1"?>
<!-- Generator: Adobe Illustrator 19.0.0, SVG Export Plug-In . SVG Version: 6.00 Build 0)  -->
<svg version="1.1" id="Capa_1" xmlns="http://www.w3.org/2000/svg" xmlns:xlink="http://www.w3.org/1999/xlink" x="0px" y="0px"
	 viewBox="0 0 511.999 511.999" style="enable-background:new 0 0 511.999 511.999;" xml:space="preserve">
<rect x="212.18" y="144.329" style="fill:#C3FB3A;" width="87.64" height="223.33"/>
<rect x="212.18" y="144.329" style="fill:#65C27C;" width="36.32" height="223.33"/>
<g>
	<path style="fill:#FF5023;" d="M474.476,158.545l-174.656-2.213v87.551h195.656c4.984,0,9.024-4.04,9.024-9.024v-39.284
		C504.5,177.687,491.977,162.242,474.476,158.545z"/>
	<path style="fill:#FF5023;" d="M212.18,156.332l-174.656,2.213C20.023,162.242,7.5,177.687,7.5,195.575v39.284
		c0,4.984,4.04,9.024,9.024,9.024H212.18V156.332z"/>
</g>
<g>
	<path style="fill:#D80029;" d="M43.82,234.859v-39.284c0-17.888,12.523-33.333,30.024-37.03l138.335-1.753v-0.46l-174.656,2.213
		c-17.5,3.697-30.023,19.142-30.023,37.03v39.284c0,4.984,4.04,9.024,9.024,9.024h36.32C47.86,243.883,43.82,239.843,43.82,234.859z
		"/>
	<polygon style="fill:#D80029;" points="299.82,156.332 299.82,243.883 336.14,243.883 336.14,156.792 	"/>
</g>
<g>
	<path style="fill:#FFFFFF;" d="M212.18,243.883H31.518v73.587c0,25.329,20.533,45.862,45.862,45.862h134.8V243.883z"/>
	<path style="fill:#FFFFFF;" d="M299.82,243.883v119.36h134.688c25.308,0,45.825-20.516,45.825-45.825v-73.535H299.82z"/>
</g>
<g>
	<path style="fill:#E0E0E2;" d="M67.913,317.47v-73.587H31.518v73.587c0,25.329,20.533,45.862,45.862,45.862h36.394
		C88.446,363.332,67.913,342.799,67.913,317.47z"/>
	<rect x="299.82" y="243.879" style="fill:#E0E0E2;" width="36.39" height="119.36"/>
</g>
<rect x="79.25" y="275.369" width="15" height="15"/>
<rect x="115.32" y="311.699" width="15" height="15"/>
<rect x="171.74" y="293.699" width="15" height="15"/>
<rect x="378.82" y="316.699" width="15" height="15"/>
<rect x="326.64" y="280.449" width="15" height="15"/>
<rect x="431.5" y="257.449" width="15" height="24.5"/>
<rect x="431.5" y="295.949" width="15" height="36.5"/>
<path d="M476.025,151.207l-0.72-0.152l-167.985-2.128v-12.094H204.68v12.094l-167.986,2.128l-0.72,0.152
	C15.129,155.61,0,174.27,0,195.575v39.284c0,9.111,7.413,16.524,16.524,16.524h7.495v66.087c0,29.424,23.938,53.363,53.362,53.363
	H204.68v4.333h102.64v-4.423h127.188c29.403,0,53.324-23.921,53.324-53.325v-66.035h7.644c9.111,0,16.523-7.413,16.523-16.524
	v-39.284C512,174.27,496.871,155.61,476.025,151.207z M16.524,236.383c-0.84,0-1.524-0.684-1.524-1.524v-39.284
	c0-1.407,0.103-2.796,0.294-4.161h25.23v-15H21.873c4.131-5.062,9.87-8.813,16.523-10.38l166.284-2.106v28.679H153v15h51.68v28.775
	H16.524V236.383z M77.381,355.832c-21.076,0-38.232-17.086-38.356-38.133H76v-15H39.019v-51.317H204.68v104.45H77.381z
	 M219.68,225.332H234v-15h-14.32v-58.5h72.64v169.867h-28.653v15h28.653v23.466h-72.64L219.68,225.332L219.68,225.332z
	 M472.833,317.418c0,21.132-17.192,38.325-38.324,38.325H351V324.2h-15v31.543h-28.68v-104.36h165.513V317.418z M495.477,236.383
	H307.32v-8.05h19.319v-15H307.32v-49.404l166.283,2.106C487.202,169.237,497,181.55,497,195.575v14.757h-26.333v15H497v9.526
	C497,235.699,496.316,236.383,495.477,236.383z"/>
<g>
	<rect x="264.5" y="213.669" style="fill:#FFFFFF;" width="15" height="94.53"/>
	<rect x="264.5" y="177.919" style="fill:#FFFFFF;" width="15" height="27.08"/>
	<rect x="440.67" y="187.499" style="fill:#FFFFFF;" width="30" height="15"/>
	<rect x="326.64" y="187.499" style="fill:#FFFFFF;" width="102.03" height="15"/>
</g>
<g>
</g>
<g>
</g>
<g>
</g>
<g>
</g>
<g>
</g>
<g>
</g>
<g>
</g>
<g>
</g>
<g>
</g>
<g>
</g>
<g>
</g>
<g>
</g>
<g>
</g>
<g>
</g>
<g>
</g>
</svg>
